<?xml version="1.0" encoding="UTF-8"?>
<svg id="Layer_1" xmlns="http://www.w3.org/2000/svg" version="1.1" xmlns:xlink="http://www.w3.org/1999/xlink" viewBox="0 0 1920 1920">
  <!-- Generator: Adobe Illustrator 29.3.1, SVG Export Plug-In . SVG Version: 2.1.0 Build 151)  -->
  <defs>
    <style>
      .st0 {
        fill: url(#linear-gradient2);
      }

      .st1 {
        fill: url(#linear-gradient1);
      }

      .st2 {
        fill: url(#linear-gradient4);
      }

      .st3 {
        fill: url(#linear-gradient5);
      }

      .st4 {
        fill: url(#linear-gradient3);
      }

      .st5 {
        fill: url(#linear-gradient);
      }
    </style>
    <linearGradient id="linear-gradient" x1="401.2" y1="579.5" x2="1806.2" y2="1540.7" gradientUnits="userSpaceOnUse">
      <stop offset="0" stop-color="#cf52f1"/>
      <stop offset="0" stop-color="#c550ee"/>
      <stop offset=".2" stop-color="#ac4de9"/>
      <stop offset=".4" stop-color="#9049e3"/>
      <stop offset="1" stop-color="#6236c7"/>
    </linearGradient>
    <linearGradient id="linear-gradient1" x1="544.8" y1="700.8" x2="1526.5" y2="1350.3" xlink:href="#linear-gradient"/>
    <linearGradient id="linear-gradient2" x1="1359.7" y1="1433.1" x2="516.3" y2="443.9" gradientUnits="userSpaceOnUse">
      <stop offset="0" stop-color="#ffbffd"/>
      <stop offset=".5" stop-color="#fdc8fd"/>
      <stop offset="1" stop-color="#fcd4ff"/>
    </linearGradient>
    <linearGradient id="linear-gradient3" x1="695.9" y1="944.1" x2="1268.6" y2="944.1" xlink:href="#linear-gradient2"/>
    <linearGradient id="linear-gradient4" x1="1193" y1="1224.6" x2="1341.8" y2="1224.6" xlink:href="#linear-gradient2"/>
    <linearGradient id="linear-gradient5" x1="1264.3" y1="831.6" x2="1399.1" y2="831.6" xlink:href="#linear-gradient2"/>
  </defs>
  <g>
    <path class="st5" d="M1806.6,530.4c-4.2-95.4-15.1-173.8-70.7-253.9-83.2-119.7-213.3-164.6-354.8-170.3-280.5-11.2-568.3,8.7-849.6,0-113.4,5.1-221.5,37.1-303.3,118.3-82.6,82.1-111.8,186.9-116.1,301.4-10.5,279.6,8.1,565.7,0,846.1,3.4,122.7,21.3,229,108.9,320.4,101,105.3,233.1,121.3,372.4,125h755.7c101-3.1,191-14.1,278.2-67.6,145.6-89.2,176.9-219.7,181.7-382.1-6.9-277.7,9.9-560.4-2.3-837.3ZM1535.6,1188.6c7.9,98.5-51.3,194.4-146.8,223.2-39.3,170.1-278.4,246.4-397.4,107.5-4.2-4.9-21.4-31.8-24.5-31-106.7,176.8-381.4,106.4-432.7-78.5-98.8-27.6-159.2-130.6-145.5-231.2-99.5-62.1-92.6-209.2-23-292.1-.6-11.6-6.1-22.4-7.9-33.8-13.7-84.5,37.5-178.9,114.7-214.7-9.4-105.4,80.6-201.2,185.7-203,38.7-104.4,218.3-161.7,294.8-71.2,5.9,7,9.1,17.2,17.1,22.4,17.3-39.7,61.2-63.2,103.4-66.3,88.7-6.6,172,36.1,208.1,118.7,106.8,5.8,189.4,98.8,181.8,205.8,45.9,23,83,66.1,100,114.6,16,45.7,19,98.5,4.7,145,68.1,84.9,61.6,222-32.5,284.8Z"/>
    <path class="st1" d="M1501.6,921c-2.1-14.6,11.3-43.4,12.8-61.7,5-63.8-21.8-126.6-78.4-158.8-9.2-5.2-20.9-8-29.1-13.6-21.3-14.5-7.2-31.9-5.7-52,4.4-61.3-46.5-119.7-105.7-131-4.8.8-2.8,16.4-3.7,21.5-7,41.4-35.1,93.4-78.4,105.2-20.9,5.7-47-.2-47.9-25.6-1.1-28.7,20-25.3,36.1-37.5,55.7-41.9,24.4-126.1-25.5-158.1-40.1-25.7-114.6-37.5-149.3,2.4-34.7,39.8-18.5,141.7-22.5,193.2-4.5,57.2-61.5,61-69.5,9.6-11.3-71.8,28.9-220.6-78.8-228.7-52.6-4-116.6,22.6-138.1,73.4-4.9,11.6-6.6,34.3-14.7,40.9-11.6,9.5-42,1.9-58.7,3.2-36.9,3-86,38.7-99.5,73.4-13.4,34.3-3,53.5-4.6,85.5-1.1,22.8-23.4,22.7-39.1,30.9-51.9,27-89.5,89.8-84,148.9,2.1,22.7,14.7,34.7,33.6,45.4,41.2,23.3,91.8,16.9,115.5-26.6,9.8-18.1,12.3-45.9,41.5-40.8,26.3,4.6,24.5,29.9,18.7,49.7-16.9,57.4-79.5,94.9-137.8,93-29.7-1-53.9-12.6-78.6-27.6-38.6,44-49.5,124-11.7,171.3,21.2,26.5,55.6,31.1,84.8,15.1,21.2-11.6,44.5-47.2,70.5-23.2,18.7,17.3,7.2,39.3-8.4,53.3-25.3,22.8-59.8,37.7-93.9,39.5-11,61.9,28,131.2,86.9,153.3,18.2,6.8,46.1,4.6,52.8,24,11.4,32.8,9.4,51.5,32.2,83.1,44.2,61,122.8,67.3,166.1,2.2,18.7-28.2,10.3-38.2,14.2-66.9,4-29.2,42.6-37.2,53.6-9.2,12.5,31.9-12.2,103.9-35.7,129.7l-22.4,21.3c59.9-6.1,108.3-43,126.5-100.9,11.9-37.9,6.6-73,7.9-111.8.5-14.6.7-42.8,4.4-55.3,9.6-32.4,50.4-31.1,60.7,1,11.8,36.7-.8,111.4,8.1,156.4,27.9,142,238.7,138.3,306.3,19.4,13.8-24.3,14.1-43.4,23.2-66.5,7.2-18.1,31.2-17.7,48.2-24.4,64.6-25.5,88.4-84.3,87-150.2-.2-11.6-6.4-22.7-.5-34.5,4.4-8.8,19.7-14.7,28-21.1,66.7-51.5,67.4-131,19.3-196.3-5.8-7.9-15.2-12.1-16.9-23.7ZM830.7,1251.6c-80.6,41.9-127.1-8.8-131.7-88.9-9.1-156.3,5.1-323.3,2.5-480.5,5.9-36.6,30.7-58.5,67.7-60.5,9.3-.5,16.5.4,25.6,3,154.4,81.8,307.1,170.3,452.8,266.6,36,41.7,23.1,89.6-18.5,120.3-134,72.8-263.8,170.1-398.4,240ZM1339.8,1137.4c-6.2,18.9-28.5,14.1-43.8,20.2-55.7,22.5-61.5,99.7-9.4,130.3,19.8,11.6,50.2,10.8,46.1,43.2-3.8,30.5-41.8,23.8-61.6,15.1-123.5-54.2-92.2-245.3,35.8-250.4,24.1-1,40.7,17.7,32.9,41.6ZM1352.2,891.2c-12.1-8-14.4-32.2-28.8-45.9-15-14.4-42.9-18.8-52.4-30.9-14-17.9-5.2-45.6,18.7-47.6,40.9-3.5,104.4,54.1,109.1,94.8,3,26.3-24.2,44.4-46.7,29.6Z"/>
  </g>
  <g>
    <path class="st0" d="M970.1,386.1c17.3-39.7,61.2-63.2,103.4-66.3,88.7-6.6,172,36.1,208.1,118.7,106.8,5.8,189.4,98.8,181.8,205.8,45.9,23,83,66.1,100,114.6,16,45.7,19,98.5,4.7,145,68.1,84.9,61.6,222-32.5,284.8,7.9,98.5-51.3,194.4-146.8,223.2-39.3,170.1-278.4,246.4-397.4,107.5-4.2-4.9-21.4-31.8-24.5-31-106.7,176.8-381.4,106.4-432.7-78.5-98.8-27.6-159.2-130.6-145.5-231.2-99.5-62.1-92.6-209.2-23-292.1-.6-11.6-6.1-22.4-7.9-33.8-13.7-84.5,37.5-178.9,114.7-214.7-9.4-105.4,80.6-201.2,185.7-203,38.7-104.4,218.3-161.7,294.8-71.2s9.1,17.2,17.1,22.4ZM799.4,1528.9c59.9-6.1,108.3-43,126.5-100.9,11.9-37.9,6.6-73,7.9-111.8.5-14.6.7-42.8,4.4-55.3,9.6-32.4,50.4-31.1,60.7,1,11.8,36.7-.8,111.4,8.1,156.4,27.9,142,238.7,138.3,306.3,19.4,13.8-24.3,14.1-43.4,23.2-66.5,7.2-18.1,31.2-17.7,48.2-24.4,64.6-25.5,88.4-84.3,87-150.2-.2-11.6-6.4-22.7-.5-34.5,4.4-8.8,19.7-14.7,28-21.1,66.7-51.5,67.4-131,19.3-196.3-5.8-7.9-15.2-12.1-16.9-23.7-2.1-14.6,11.3-43.4,12.8-61.7,5-63.8-21.8-126.6-78.4-158.8-9.2-5.2-20.9-8-29.1-13.6-21.3-14.5-7.2-31.9-5.7-52,4.4-61.3-46.5-119.7-105.7-131-4.8.8-2.8,16.4-3.7,21.5-7,41.4-35.1,93.4-78.4,105.2-20.9,5.7-47-.2-47.9-25.6-1.1-28.7,20-25.3,36.1-37.5,55.7-41.9,24.4-126.1-25.5-158.1-40.1-25.7-114.6-37.5-149.3,2.4-34.7,39.8-18.5,141.7-22.5,193.2-4.5,57.2-61.5,61-69.5,9.6-11.3-71.8,28.9-220.6-78.8-228.7-52.6-4-116.6,22.6-138.1,73.4-4.9,11.6-6.6,34.3-14.7,40.9-11.6,9.5-42,1.9-58.7,3.2-36.9,3-86,38.7-99.5,73.4-13.4,34.3-3,53.5-4.6,85.5-1.1,22.8-23.4,22.7-39.1,30.9-51.9,27-89.5,89.8-84,148.9,2.1,22.7,14.7,34.7,33.6,45.4,41.2,23.3,91.8,16.9,115.5-26.6,9.8-18.1,12.3-45.9,41.5-40.8,26.3,4.6,24.5,29.9,18.7,49.7-16.9,57.4-79.5,94.9-137.8,93-29.7-1-53.9-12.6-78.6-27.6-38.6,44-49.5,124-11.7,171.3,21.2,26.5,55.6,31.1,84.8,15.1,21.2-11.6,44.5-47.2,70.5-23.2,18.7,17.3,7.2,39.3-8.4,53.3-25.3,22.8-59.8,37.7-93.9,39.5-11,61.9,28,131.2,86.9,153.3,18.2,6.8,46.1,4.6,52.8,24,11.4,32.8,9.4,51.5,32.2,83.1,44.2,61,122.8,67.3,166.1,2.2,18.7-28.2,10.3-38.2,14.2-66.9s42.6-37.2,53.6-9.2c12.5,31.9-12.2,103.9-35.7,129.7l-22.4,21.3Z"/>
    <path class="st4" d="M769.1,621.7c9.3-.5,16.5.4,25.6,3,154.4,81.8,307.1,170.3,452.8,266.6,36,41.7,23.1,89.6-18.5,120.3-134,72.8-263.8,170.1-398.4,240-80.6,41.9-127.1-8.8-131.7-88.9-9.1-156.3,5.1-323.3,2.5-480.5,5.9-36.6,30.7-58.5,67.7-60.5Z"/>
    <path class="st2" d="M1306.9,1095.8c24.1-1,40.7,17.7,32.9,41.6-6.2,18.9-28.5,14.1-43.8,20.2-55.7,22.5-61.5,99.7-9.4,130.3,19.8,11.6,50.2,10.8,46.1,43.2-3.8,30.5-41.8,23.8-61.6,15.1-123.5-54.2-92.2-245.3,35.8-250.4Z"/>
    <path class="st3" d="M1289.8,766.8c40.9-3.5,104.4,54.1,109.1,94.8,3,26.3-24.2,44.4-46.7,29.6-12.1-8-14.4-32.2-28.8-45.9-15-14.4-42.9-18.8-52.4-30.9-14-17.9-5.2-45.6,18.7-47.6Z"/>
  </g>
</svg>